<svg version="1.1" viewBox="0.0 0.0 960.0 192.0" fill="none" stroke="none" stroke-linecap="square" stroke-miterlimit="10" xmlns:xlink="http://www.w3.org/1999/xlink" xmlns="http://www.w3.org/2000/svg"><clipPath id="p.0"><path d="m0 0l960.0 0l0 192.0l-960.0 0l0 -192.0z" clip-rule="nonzero"/></clipPath><g clip-path="url(#p.0)"><path fill="#000000" fill-opacity="0.0" d="m0 0l960.0 0l0 192.0l-960.0 0z" fill-rule="evenodd"/><path fill="#f1c232" fill-opacity="0.5506" d="m74.37865 85.91783l0 0c0 -10.190918 8.261375 -18.452286 18.452286 -18.452286l85.62074 0c4.8938446 0 9.587265 1.9440765 13.0477295 5.4045486c3.4604797 3.460472 5.4045563 8.153885 5.4045563 13.047737l0 73.80693c0 10.190903 -8.261368 18.452286 -18.452286 18.452286l-85.62074 0c-10.19091 0 -18.452286 -8.261383 -18.452286 -18.452286z" fill-rule="evenodd"/><path fill="#ef3600" fill-opacity="0.7255" d="m19.317284 32.286934l0 0c0 -10.190916 8.26137 -18.452286 18.452286 -18.452286l85.62074 0c4.893852 0 9.587257 1.9440746 13.047737 5.4045496c3.4604645 3.460474 5.404541 8.153885 5.404541 13.047735l0 73.80692c0 10.190918 -8.261368 18.452286 -18.452278 18.452286l-85.62074 0c-10.190916 0 -18.452286 -8.261368 -18.452286 -18.452286z" fill-rule="evenodd"/><path fill="#ffff00" fill-opacity="0.4494" d="m74.37865 85.91783l0 0c0 -10.190918 8.261375 -18.452286 18.452286 -18.452286l85.62074 0c4.8938446 0 9.587265 1.9440765 13.0477295 5.4045486c3.4604797 3.460472 5.4045563 8.153885 5.4045563 13.047737l0 73.80693c0 10.190903 -8.261368 18.452286 -18.452286 18.452286l-85.62074 0c-10.19091 0 -18.452286 -8.261383 -18.452286 -18.452286z" fill-rule="evenodd"/><path fill="#000000" fill-opacity="0.0" d="m232.6824 11.895013l727.3071 0l0 168.22046l-727.3071 0z" fill-rule="evenodd"/><path fill="#000000" d="m251.3699 53.97963l15.34375 0l36.15625 55.453125l0 -55.453125l16.03125 0l0 84.265625l-15.40625 0l-36.09375 -55.28125l0 55.28125l-16.03125 0l0 -84.265625zm114.29303 20.328125q8.8125 0 16.578125 4.421875q7.765625 4.40625 12.109375 11.96875q4.359375 7.5625 4.359375 16.328125q0 8.8125 -4.390625 16.5q-4.375 7.671875 -11.9375 12.0q-7.5625 4.328125 -16.671875 4.328125q-13.40625 0 -22.890625 -9.53125q-9.46875 -9.546875 -9.46875 -23.1875q0 -14.609375 10.703125 -24.34375q9.40625 -8.484375 21.609375 -8.484375zm0.21875 14.71875q-7.265625 0 -12.109375 5.078125q-4.84375 5.0625 -4.84375 12.96875q0 8.140625 4.78125 13.1875q4.78125 5.03125 12.125 5.03125q7.328125 0 12.1875 -5.09375q4.875 -5.09375 4.875 -13.125q0 -8.015625 -4.78125 -13.03125q-4.78125 -5.015625 -12.234375 -5.015625zm45.54355 -13.109375l15.8125 0l0 30.015625q0 8.765625 1.203125 12.171875q1.203125 3.40625 3.859375 5.296875q2.671875 1.890625 6.578125 1.890625q3.890625 0 6.609375 -1.859375q2.71875 -1.859375 4.046875 -5.46875q0.96875 -2.6875 0.96875 -11.515625l0 -30.53125l15.6875 0l0 26.40625q0 16.328125 -2.578125 22.34375q-3.140625 7.328125 -9.28125 11.265625q-6.125 3.921875 -15.578125 3.921875q-10.25 0 -16.578125 -4.578125q-6.328125 -4.59375 -8.90625 -12.78125q-1.84375 -5.671875 -1.84375 -20.625l0 -25.953125zm66.79898 0l13.40625 0l0 7.84375q2.1875 -4.640625 5.796875 -7.046875q3.609375 -2.40625 7.90625 -2.40625q3.03125 0 6.359375 1.609375l-4.875 13.453125q-2.75 -1.375 -4.53125 -1.375q-3.609375 0 -6.109375 4.46875q-2.484375 4.46875 -2.484375 17.53125l0.0625 3.046875l0 25.203125l-15.53125 0l0 -62.328125zm47.32126 -25.671875q4.125 0 7.078125 2.984375q2.953125 2.984375 2.953125 7.21875q0 4.1875 -2.921875 7.140625q-2.921875 2.9375 -6.984375 2.9375q-4.1875 0 -7.140625 -3.0q-2.953125 -3.015625 -2.953125 -7.3125q0 -4.125 2.921875 -7.046875q2.921875 -2.921875 7.046875 -2.921875zm-7.84375 25.671875l15.703125 0l0 62.328125l-15.703125 0l0 -62.328125zm68.00397 8.703125l-9.6875 9.6875q-5.890625 -5.84375 -10.703125 -5.84375q-2.640625 0 -4.140625 1.125q-1.484375 1.109375 -1.484375 2.765625q0 1.265625 0.9375 2.328125q0.953125 1.046875 4.6875 2.890625l5.71875 2.859375q9.0625 4.46875 12.4375 9.109375q3.375 4.640625 3.375 10.890625q0 8.296875 -6.109375 13.859375q-6.09375 5.5625 -16.34375 5.5625q-13.640625 0 -21.765625 -10.65625l9.625 -10.484375q2.75 3.203125 6.4375 5.1875q3.703125 1.96875 6.5625 1.96875q3.09375 0 4.984375 -1.484375q1.890625 -1.5 1.890625 -3.4375q0 -3.609375 -6.8125 -7.046875l-5.28125 -2.640625q-15.125 -7.625 -15.125 -19.078125q0 -7.390625 5.703125 -12.625q5.703125 -5.25 14.578125 -5.25q6.078125 0 11.4375 2.671875q5.359375 2.65625 9.078125 7.640625zm13.523743 -32.765625l15.515625 0l0 30.359375q4.59375 -3.953125 9.234375 -5.921875q4.640625 -1.984375 9.390625 -1.984375q9.28125 0 15.640625 6.421875q5.4375 5.546875 5.4375 16.328125l0 41.1875l-15.40625 0l0 -27.328125q0 -10.828125 -1.03125 -14.65625q-1.03125 -3.84375 -3.53125 -5.734375q-2.484375 -1.890625 -6.15625 -1.890625q-4.75 0 -8.15625 3.15625q-3.40625 3.140625 -4.734375 8.578125q-0.6875 2.8125 -0.6875 12.84375l0 25.03125l-15.515625 0l0 -86.390625z" fill-rule="nonzero"/><path fill="#000000" d="m671.919 138.24525l0 -84.265625l17.484375 0q18.90625 0 27.4375 3.03125q12.25 4.296875 19.15625 14.890625q6.90625 10.59375 6.90625 25.265625q0 12.65625 -5.46875 22.28125q-5.46875 9.625 -14.203125 14.21875q-8.734375 4.578125 -24.5 4.578125l-26.8125 0zm8.078125 -7.96875l9.75 0q17.46875 0 24.234375 -2.171875q9.5 -3.09375 14.9375 -11.140625q5.453125 -8.046875 5.453125 -19.6875q0 -12.203125 -5.90625 -20.84375q-5.90625 -8.65625 -16.4375 -11.859375q-7.90625 -2.40625 -26.0625 -2.40625l-5.96875 0l0 68.109375zm75.40234 7.96875l11.96875 -84.265625l1.375 0l34.265625 69.140625l33.90625 -69.140625l1.375 0l12.09375 84.265625l-8.3125 0l-8.25 -60.265625l-29.78125 60.265625l-2.125 0l-30.1875 -60.71875l-8.203125 60.71875l-8.125 0zm105.24005 -84.265625l9.15625 0l27.90625 65.125l28.40625 -65.125l9.171875 0l-36.65625 84.265625l-1.84375 0l-36.140625 -84.265625z" fill-rule="nonzero"/></g></svg>